<svg xmlns="http://www.w3.org/2000/svg" width="1678" height="898.001" viewBox="0 0 1678 898.001"><path d="M1722,990H44V92H1722V213.636l-31.805-26.688a19,19,0,0,0-26.768,2.342L1538.083,338.668a18.985,18.985,0,0,0,2.342,26.768L1689.8,490.78a19,19,0,0,0,26.768-2.342l5.428-6.469V990ZM1284.2,770.046a18.952,18.952,0,0,0-13.9,6.042L1234.15,814.85a18.983,18.983,0,0,0,.938,26.853l38.762,36.146a18.983,18.983,0,0,0,26.853-.938l36.146-38.761a18.985,18.985,0,0,0-.938-26.854L1297.15,775.15A18.933,18.933,0,0,0,1284.2,770.046Zm358.719-101.567a19.262,19.262,0,0,0-2.34.143l-78.411,9.627a18.985,18.985,0,0,0-16.543,21.174l9.627,78.411a19.011,19.011,0,0,0,18.835,16.687,19.447,19.447,0,0,0,2.339-.144l78.411-9.628a18.983,18.983,0,0,0,16.543-21.174l-9.627-78.411A19.007,19.007,0,0,0,1642.916,668.479ZM563.841,540.588a59.289,59.289,0,0,0-26.4,6.2,58.746,58.746,0,0,0-21.378,18.12l-32.916,45.305a58.722,58.722,0,0,0-11.237,32.61,59.174,59.174,0,0,0,8.436,32.551,58.629,58.629,0,0,0,15.854,17.25l95.464,69.36a58.938,58.938,0,0,0,82.412-13.053l32.916-45.305a58.725,58.725,0,0,0,11.238-32.61,59.177,59.177,0,0,0-8.436-32.551,58.634,58.634,0,0,0-15.854-17.25l-95.464-69.359a58.726,58.726,0,0,0-34.631-11.271ZM977,691a17,17,0,0,0-17,17v33a17,17,0,0,0,17,17h33a17,17,0,0,0,17-17V708a17,17,0,0,0-17-17Z" transform="translate(-44 -92)" fill="#fff"/></svg>