<svg xmlns="http://www.w3.org/2000/svg" width="414" height="705.001" viewBox="0 0 414 705.001">
  <defs>
    <style>
      .cls-1 {
        fill: #fff;
      }
    </style>
  </defs>
  <path id="Subtraction_1" data-name="Subtraction 1" class="cls-1" d="M-1609.384,828.639h0l-179.078,0v-56.99a54.773,54.773,0,0,0,4.133-5.03l38.794-53.4a53.66,53.66,0,0,0,8.921-19.5,54,54,0,0,0,1.364-10.347,54.394,54.394,0,0,0-.637-10.341,54.386,54.386,0,0,0-2.59-10.032,54,54,0,0,0-4.494-9.42,53.66,53.66,0,0,0-14.51-15.788l-30.981-22.509V308.93l51.041-72.894a53.664,53.664,0,0,0,8.58-19.652,54.016,54.016,0,0,0,1.183-10.369,54.4,54.4,0,0,0-.818-10.329,54.394,54.394,0,0,0-2.764-9.985,54.015,54.015,0,0,0-4.658-9.34,53.668,53.668,0,0,0-14.784-15.532l-37.78-26.454V123.638h414V150.69l-47.038,19a18.882,18.882,0,0,0-6.3,4.155,18.94,18.94,0,0,0-4.075,6.038,18.938,18.938,0,0,0-1.513,7.125,18.884,18.884,0,0,0,1.386,7.416l29.594,73.247a18.9,18.9,0,0,0,7.114,8.718,18.986,18.986,0,0,0,10.51,3.17,18.9,18.9,0,0,0,7.111-1.389l3.209-1.3V626.26l-45.834,5.627a18.882,18.882,0,0,0-7.159,2.383,18.934,18.934,0,0,0-5.5,4.778,18.934,18.934,0,0,0-3.305,6.491,18.882,18.882,0,0,0-.581,7.523l9.627,78.411a19.01,19.01,0,0,0,18.834,16.687,19.491,19.491,0,0,0,2.34-.144l31.576-3.877v84.5h-176.98l5.159-4.645a16.889,16.889,0,0,0,5.6-11.744,16.888,16.888,0,0,0-4.343-12.265l-22.082-24.524a16.863,16.863,0,0,0-5.834-4.21,16.938,16.938,0,0,0-6.8-1.414,16.967,16.967,0,0,0-11.37,4.367l-24.524,22.082a16.888,16.888,0,0,0-5.6,11.744,16.888,16.888,0,0,0,4.343,12.265l7.514,8.346Z" transform="translate(1788.465 -123.638)"/>
</svg>
