<svg xmlns="http://www.w3.org/2000/svg" width="35.937" height="24.71" viewBox="0 0 35.937 24.71"><g transform="translate(0.011 -5)"><path d="M8.245,9.491H30.7A2.245,2.245,0,0,0,30.7,5H8.245a2.245,2.245,0,0,0,0,4.491Z" transform="translate(0.737)" fill="#a8f1fa"/><path d="M.664,5.661A2.245,2.245,0,0,0,0,7.244a1.908,1.908,0,0,0,0,.438,2.021,2.021,0,0,0,.123.427,2.6,2.6,0,0,0,.213.382,2.054,2.054,0,0,0,.281.348,1.987,1.987,0,0,0,.337.269,1.83,1.83,0,0,0,.382.213,1.852,1.852,0,0,0,.472.168,1.965,1.965,0,0,0,.438,0A2.245,2.245,0,0,0,3.83,8.838,2.054,2.054,0,0,0,4.11,8.49a2.6,2.6,0,0,0,.213-.382,2.088,2.088,0,0,0,.168-.427,1.908,1.908,0,0,0,0-.438A2.245,2.245,0,0,0,.664,5.661Z" transform="translate(0 0.001)" fill="#a8f1fa"/><path d="M4.322,15.391A2.245,2.245,0,0,0,4.109,15a1.617,1.617,0,0,0-.281-.337A2.245,2.245,0,0,0,0,16.244,2.239,2.239,0,0,0,.37,17.49a2.155,2.155,0,0,0,.292.337A1.639,1.639,0,0,0,1,18.108a1.818,1.818,0,0,0,.382.213,1.909,1.909,0,0,0,.427.123,1.864,1.864,0,0,0,.438.045,1.908,1.908,0,0,0,.438,0,1.819,1.819,0,0,0,.415-.123,1.875,1.875,0,0,0,.393-.213,1.639,1.639,0,0,0,.337-.281,1.639,1.639,0,0,0,.281-.337,1.807,1.807,0,0,0,.213-.382,1.9,1.9,0,0,0,.168-.472,1.852,1.852,0,0,0,0-.438,1.92,1.92,0,0,0,0-.438A1.819,1.819,0,0,0,4.322,15.391Z" transform="translate(0.001 1.105)" fill="#a8f1fa"/><path d="M4.322,24.38A2.6,2.6,0,0,0,4.109,24a1.639,1.639,0,0,0-.281-.337,2.245,2.245,0,0,0-3.166,0A1.639,1.639,0,0,0,.382,24a2.6,2.6,0,0,0-.213.382,1.841,1.841,0,0,0-.123.427A1.931,1.931,0,0,0,0,25.244a2.245,2.245,0,0,0,.662,1.583A1.639,1.639,0,0,0,1,27.108a1.819,1.819,0,0,0,.382.213,1.909,1.909,0,0,0,.427.123,1.864,1.864,0,0,0,.438.045,1.908,1.908,0,0,0,.438,0,1.819,1.819,0,0,0,.415-.123,1.875,1.875,0,0,0,.393-.213,1.639,1.639,0,0,0,.337-.281,1.639,1.639,0,0,0,.281-.337,1.8,1.8,0,0,0,.213-.382,1.908,1.908,0,0,0,.168-.472,1.852,1.852,0,0,0,0-.438,1.931,1.931,0,0,0,0-.438A1.909,1.909,0,0,0,4.322,24.38Z" transform="translate(0.001 2.208)" fill="#a8f1fa"/><path d="M32.943,14H8.245a2.245,2.245,0,0,0,0,4.491h24.7a2.245,2.245,0,0,0,0-4.491Z" transform="translate(0.737 1.104)" fill="#a8f1fa"/><path d="M22.839,23H8.245a2.245,2.245,0,1,0,0,4.491H22.839a2.245,2.245,0,0,0,0-4.491Z" transform="translate(0.737 2.207)" fill="#a8f1fa"/></g></svg>